PathFileType	4	(X/Y/Z)	C:/Users/beibeiliu/ov580/test_trc/User3\out2_training_dense_right.trc
DataRate	CameraRate	NumFrames	NumMarkers	Units	OrigDataRate	OrigDataStartFrame	OrigNumFrames
120	120	25	19	mm	120	126	500
Frame#	Time	ThumbCMC			ThumbMCP			ThumbIP			ThumbTip			IndexMCP			IndexPIP			IndexTip			MiddleMCP			MiddlePIP			MiddleTip			RingMCP			RingPIP			RingTip			PinkyMCP			PinkyPIP			PinkyTip			BackHand1			BackHand2			BackHand3	
		X0	Y0	Z0	X1	Y1	Z1	X2	Y2	Z2	X3	Y3	Z3	X4	Y4	Z4	X5	Y5	Z5	X6	Y6	Z6	X7	Y7	Z7	X8	Y8	Z8	X9	Y9	Z9	X10	Y10	Z10	X11	Y11	Z11	X12	Y12	Z12	X13	Y13	Z13	X14	Y14	Z14	X15	Y15	Z15	X16	Y16	Z16	X17	Y17	Z17	X18	Y18	Z18	
125	1.04167	148.373	65.7942	18.3408	117.023	78.5277	1.88486	93.1827	79.1027	-12.8469	72.0783	66.3284	-26.6537	138.587	51.1687	-55.9243	116.931	61.1422	-77.6	84.3044	68.2853	-70.9481	128.154	26.3671	-59.401	98.7435	37.8831	-76.8576	65.4677	45.5204	-57.3715	108.134	17.3777	-40.6106	79.055	25.712	-28.3212	82.6486	39.0833	-2.2504	104.769	5.86487	-19.4803	86.2947	19.5555	-6.55743	102.268	27.3551	17.5978	155.667	2.51469	-7.92576	166.985	4.74447	22.5723	169.965	38.2887	2.02465	
126	1.05	162.225	67.2196	17.7035	138.557	85.5522	1.6152	115.865	94.7594	-17.7758	95.1735	87.0078	-28.9118	155.019	57.6884	-56.2287	132.484	69.2585	-79.7189	105.557	81.9897	-75.4791	138.107	34.7702	-62.8913	113.535	49.2852	-78.8916	84.1449	65.5774	-64.535	113.395	27.4725	-43.4704	91.1356	45.1316	-35.7555	94.3265	55.1002	-2.76157	106.72	18.2331	-22.1718	92.0515	36.2958	-6.15105	111.719	40.9562	15.7961	158.424	8.01601	-8.40316	167.042	1.9385	23.6149	180.144	34.5775	1.56481	
127	1.05833	180.215	66.6007	17.982	159.868	85.6201	-2.07821	143.428	101.091	-19.0294	122.148	99.8314	-35.7829	170.514	55.1116	-57.2086	158.553	76.6588	-80.6425	133.94	96.6839	-76.7904	156.138	40.7281	-62.057	132.705	58.0112	-81.2155	107.924	84.0151	-69.3828	130.66	39.4354	-46.0226	106.824	61.4175	-37.8877	112.159	68.0618	-8.38941	113.287	33.3249	-27.6271	108.193	54.1321	-9.35638	125.044	49.6784	14.0103	160.551	8.81561	-8.0095	170.772	5.55281	27.0631	187.178	29.771	7.64078	
128	1.06667	200.138	64.4193	21.4026	185.327	85.4384	1.13381	171.881	101.256	-22.5667	151.587	106.068	-43.1505	193.655	53.0216	-56.6677	183.812	69.4875	-79.3213	165.798	95.6467	-78.8317	173.821	39.2635	-59.1398	159.542	62.1209	-84.2652	137.776	92.9755	-73.4413	148.612	45.2774	-49.8787	131.352	71.4778	-43.4568	139.481	77.1069	-11.4274	128.59	41.9787	-30.2679	126.898	64.5257	-18.2695	142.186	58.7381	5.22233	168.568	10.6692	-8.23846	173.886	1.93695	25.0023	198.527	25.3433	10.1661	
129	1.075	214.436	55.8759	20.5079	209.2	79.8434	-2.2766	203.129	98.8001	-25.0465	184.143	104.731	-44.3277	211.827	43.6163	-57.4709	211.549	63.416	-79.2703	196.428	91.4631	-78.9196	194.02	34.7201	-63.2741	182.159	57.1637	-85.3712	170.714	94.021	-76.2929	168.996	43.7496	-49.9693	156.199	70.9558	-49.9009	162.665	77.4806	-14.2695	152.331	42.8102	-32.215	147.401	68.9194	-18.2567	158.966	57.9862	5.68141	180.75	8.94064	-6.09621	182.484	3.74767	28.1707	212.427	18.5762	10.7855	
130	1.08333	230.521	45.3046	25.8234	233.467	71.7445	-2.01204	228.249	86.1423	-26.9448	211.41	92.7227	-44.9867	234.195	29.8535	-50.6138	238.981	49.1091	-75.3698	225.489	77.9471	-77.4596	209.513	23.6732	-61.5432	208.165	47.9505	-84.1699	200.815	81.5579	-78.1467	187.592	38.2174	-50.7019	182.592	68.6255	-49.7976	188.263	73.7209	-15.7305	173.092	43.5191	-35.5268	169.6	67.1059	-25.449	180.442	59.5979	4.70629	194.375	3.42349	-4.74586	185.416	-0.473442	28.0247	221.195	10.2223	13.9543	
131	1.09167	244.511	33.2729	27.4169	251.556	56.882	6.2768	254.077	73.3628	-24.0872	239.663	78.9439	-43.8866	256.614	12.3967	-40.9952	262.829	27.0434	-69.9567	258.44	59.6077	-70.5857	230.015	8.26299	-52.0515	233.494	31.6955	-81.0317	225.639	67.5734	-75.0889	208.228	25.538	-47.3806	207.357	56.9326	-51.7128	208.436	63.8138	-17.0392	191.508	33.6846	-36.4566	194.705	59.8626	-24.9001	196.967	55.3693	3.3852	205.474	-4.56132	0.887191	196.788	-8.47492	27.0557	232.208	-2.08643	17.5454	
132	1.1	259.734	23.494	38.135	270.054	43.5828	10.9196	275.424	55.8689	-20.4913	259.863	59.6925	-40.6272	268.256	-6.40586	-33.7041	280.1	5.32986	-62.3745	281.406	42.1665	-64.1374	251.921	-10.0653	-45.1025	256.176	10.9847	-75.7221	252.123	45.9508	-71.9715	228.211	11.5229	-45.551	230.356	40.1508	-52.4468	231.256	53.094	-19.1323	208.711	19.0428	-34.3475	216.114	47.9478	-26.1515	216.78	44.245	0.14586	214.608	-17.5692	4.81715	202.307	-14.2991	34.044	242.429	-14.3581	29.8165	
133	1.10833	271.344	14.8129	43.4124	281.212	29.8504	10.8719	287.311	39.8279	-13.6957	277.256	43.5423	-37.9683	289.586	-23.2991	-24.3448	301.542	-11.6066	-51.9764	296.237	21.2628	-59.6939	265.766	-25.5038	-40.1454	279.016	-10.735	-64.5772	271.895	28.3244	-65.5355	244.105	-5.46718	-40.1794	245.658	23.346	-50.5338	241.975	41.2046	-22.0611	224.928	7.12396	-34.7945	230.259	35.3006	-26.4933	232.269	34.4044	-1.49878	228.793	-26.2556	9.68847	219.27	-23.6762	37.2318	255.282	-21.9147	35.8783	
134	1.11667	278.317	9.28503	46.9494	292.128	24.585	18.5849	305.314	33.9036	-11.9057	293.168	32.2984	-37.8257	301.924	-33.206	-14.0164	320.747	-24.7287	-40.0282	316.09	9.15312	-50.4511	287.022	-37.1616	-28.8722	296.174	-20.894	-57.6581	286.484	19.8006	-55.7015	264.635	-18.6668	-33.9505	265.743	8.59443	-47.6483	261.841	31.6253	-18.448	242.478	-8.92787	-28.3753	249.109	21.2097	-26.0541	245.876	26.0857	0.138764	243.271	-35.4617	19.8082	227.675	-26.2699	46.0188	262.812	-27.8524	44.0292	
135	1.125	290.334	10.8959	50.206	304.812	27.4439	22.1411	315.12	33.3472	-8.38247	303.524	27.9361	-32.2971	321.214	-32.6246	-1.27594	334.44	-26.9619	-31.8875	329.021	3.15059	-44.4129	303.639	-41.2427	-22.237	313.495	-25.6734	-48.7481	303.021	10.3816	-49.8853	282.202	-24.7253	-29.7913	280.884	3.16071	-42.7313	270.817	23.9966	-22.9246	258.904	-16.3635	-23.9721	259.283	13.8825	-25.8916	253.328	22.2325	0.795556	258.555	-39.267	22.1081	240.973	-32.072	51.3905	278.745	-27.3564	47.6118	
136	1.13333	294.003	19.8196	54.6222	306.137	31.1485	22.7677	315.084	36.6901	-5.33513	309.097	29.4173	-30.0888	331.78	-26.0632	4.91193	352.31	-16.2439	-21.5723	337.204	12.1141	-37.3769	321.146	-36.2521	-12.1398	332.888	-22.1331	-37.736	312.419	10.9178	-43.7368	294.667	-28.6605	-20.8784	293.297	-4.86883	-39.9298	278.273	22.1099	-23.0236	274.169	-22.1364	-20.0827	269.135	6.87122	-25.7147	263.023	20.062	-0.985504	274.035	-40.6229	29.5262	250.693	-31.465	54.1677	289.94	-23.2831	54.9528	
137	1.14167	293.75	31.3752	54.2446	304.448	42.5187	20.6748	315.139	48.1417	-8.71062	306.736	36.433	-29.3967	346.985	-8.7344	8.91088	359.751	4.19911	-16.8482	343.648	27.5243	-32.8479	336.102	-23.3579	-4.03019	344.229	-5.72312	-34.3077	318.425	19.9685	-39.0588	311.781	-24.1672	-16.6808	305.563	-0.0244353	-37.7223	285.304	22.6743	-23.4784	288.971	-20.0577	-16.9365	279.589	2.99592	-26.763	262.079	17.6183	-4.96564	285.285	-36.6641	36.3834	268.609	-28.6091	60.7703	301.02	-9.54614	60.4785	
138	1.15	288.467	42.2654	52.2323	295.223	55.266	19.4566	303.91	59.8744	-11.3391	301.661	44.6411	-36.0956	350.237	13.9796	10.8702	359.435	30.431	-17.1711	337.37	44.1112	-33.2581	345.902	-4.46928	-0.375492	347.194	11.7071	-31.3221	317.986	26.1609	-40.4413	321.196	-12.8532	-8.48691	312.277	2.90171	-37.0088	288.666	24.7003	-28.0922	300.202	-16.6513	-13.066	288.789	2.91177	-28.2535	266.228	19.3124	-14.1651	300.787	-24.2583	41.3368	276.512	-24.2073	61.8834	300.97	4.23541	63.584	
139	1.15833	276.378	47.4638	48.8872	281.917	59.1236	14.5507	287.268	66.5372	-15.9434	288.697	49.3607	-34.9266	345.096	41.4249	11.1271	348.473	54.7228	-19.7511	325.906	61.442	-35.477	345.664	17.3339	1.25512	344.724	28.9421	-32.4843	312.139	36.2193	-43.8998	327.3	3.36441	-5.11772	321.791	10.2255	-35.0004	288.592	25.2129	-35.1373	307.397	-12.1608	-11.493	299.428	1.38675	-31.006	271.725	17.6621	-27.496	305.56	-9.38632	42.9579	282.671	-14.7726	64.9861	299.991	17.1844	62.8554	
140	1.16667	265.217	52.994	42.8444	261.378	67.5279	9.56271	264.402	69.6857	-18.8349	272.641	54.1317	-41.3382	328.428	58.78	6.19004	331.155	68.4491	-28.3621	305.891	73.0065	-45.2365	335.608	35.705	-0.873958	336.535	46.1612	-36.6255	303.642	43.3204	-53.4028	327.497	13.2081	-8.12039	323.913	22.5818	-37.7741	289.525	25.539	-47.7037	309.713	-5.25254	-5.92875	308.659	1.92096	-32.457	279.355	16.4116	-42.9271	301.306	-1.15081	41.2384	284.397	-4.91313	61.3862	293.654	32.9736	59.4785	
141	1.175	246.03	56.3972	39.085	243.56	63.3583	2.11117	242.781	70.892	-27.4982	249.868	55.2767	-47.2893	310.133	74.0548	-6.35385	311.218	79.5349	-36.6344	288.671	75.6435	-57.4883	322.252	47.1245	-9.8174	322.925	59.9392	-42.8842	294.84	52.0319	-65.113	319.219	30.4187	-12.9475	318.869	30.5367	-43.921	295.207	31.9833	-61.1376	307.237	-0.674456	-8.77674	308.588	4.51813	-38.1571	289.455	7.23826	-56.0077	298.944	14.7938	35.966	282.587	0.590542	60.1809	284.23	37.5674	51.4409	
142	1.18333	232.87	55.2265	29.015	220.93	60.716	-1.58534	218.866	64.7394	-32.4069	223.42	53.712	-52.9802	288.552	76.8728	-17.0214	285.78	87.1719	-46.099	269.154	81.6453	-70.5971	306.85	57.8613	-20.1359	309.034	63.8668	-50.5007	282.78	54.4107	-80.8151	309.162	36.772	-20.4262	312.078	41.1709	-45.6159	291.378	34.3666	-75.0869	302.056	7.06406	-13.6729	307.888	9.09037	-37.6311	298.25	3.99627	-65.5453	287.64	20.4877	31.4542	281.435	8.40647	52.5084	272.13	47.7284	44.4387	
143	1.19167	219.125	48.3664	23.038	202.524	50.448	-4.42204	194.733	53.4548	-36.6238	198.706	46.1897	-61.0157	262.354	76.6571	-26.4202	257.983	86.9323	-59.6249	249.042	78.9011	-84.409	286.386	60.525	-28.2396	290.075	67.8954	-60.264	272.46	59.404	-94.2532	291.393	38.8623	-23.7887	300.037	41.7669	-57.4776	290.007	38.25	-82.9133	291.734	8.98855	-16.1253	301.341	7.88562	-39.7696	301.266	8.43821	-67.2492	280.606	29.3016	21.2597	268.819	15.4106	50.6788	256.316	48.0726	33.7146	
144	1.2	202.974	41.3897	22.8478	185.053	40.5405	-8.52538	176.679	39.9109	-36.6143	171.56	34.8221	-59.5063	240.211	73.3531	-39.9216	236.269	79.6309	-69.609	224.543	79.6744	-91.5883	264.084	60.0352	-37.2089	268.842	67.5468	-70.4884	261.062	63.7735	-102.441	277.63	39.3753	-34.5783	285.435	41.7626	-58.4917	283.942	38.6281	-91.4522	283.017	8.49198	-22.0484	293.796	9.25203	-46.7647	298.161	6.22671	-65.1928	266.977	28.7796	11.9598	260.217	20.2068	45.2837	244.246	50.0679	25.747	
145	1.20833	189.917	35.7439	16.7179	172.651	30.8777	-13.3887	157.406	27.9271	-37.7006	151.424	22.6551	-59.7413	222.192	62.5764	-50.0636	214.663	70.1578	-73.8348	205.517	72.2841	-99.2431	248.273	53.951	-45.6016	250.434	62.9943	-75.9246	248.611	62.1301	-108.831	261.785	35.4619	-40.6283	270.874	39.8924	-66.8568	274.822	36.4919	-94.8492	268.817	7.51099	-26.7263	280.984	5.79809	-46.4002	294.072	-0.568242	-66.1164	256.202	25.0821	9.04659	250.859	21.558	37.3892	231.255	45.8302	19.2465	
146	1.21667	176.667	30.4914	9.40141	159.723	20.9555	-12.6513	143.81	16.0466	-40.4044	134.788	8.13522	-56.7891	200.88	54.362	-57.959	193.665	57.5418	-78.4062	190.795	59.5673	-107.499	230.661	45.8888	-54.3166	233.13	53.9146	-83.9895	233.282	57.1126	-117.83	247.213	27.1648	-45.4702	256.582	32.7278	-72.0526	262.985	33.072	-96.9116	259.705	3.34283	-33.4484	270.144	1.23036	-52.5239	280.881	-1.54022	-72.2697	241.408	28.3427	-0.251924	239.541	21.2799	29.7383	214.214	42.0558	13.4848	
147	1.225	162.436	24.5172	6.827	146.055	11.5808	-14.2356	130.355	4.09669	-38.2249	120.173	-4.18544	-56.3141	189.302	40.2554	-61.9831	181.106	44.3651	-86.8558	175.006	46.8855	-112.468	219.163	36.9378	-62.8415	217.464	44.8226	-92.0084	215.939	49.2652	-122.59	233.364	21.3667	-51.2263	243.795	24.9228	-73.9941	251.794	26.216	-100.184	243.527	-1.54099	-35.2375	257.558	-7.43529	-52.6	272.134	-10.2747	-69.1543	228.336	24.0486	-3.20761	226.625	22.6236	22.9847	201.857	37.5791	7.71639	
148	1.23333	153.285	18.4671	4.61068	132.934	3.94289	-17.1181	115.153	-4.94011	-39.9569	103.769	-14.6821	-53.3077	174.7	32.684	-67.8811	168.14	33.0485	-94.5757	160.08	35.5747	-117.479	204.543	29.4507	-67.3883	206.801	33.394	-92.2447	207.416	35.8476	-126.53	222.241	15.5771	-57.0978	233.538	16.6856	-77.3248	239.112	17.0512	-103.962	237.558	-7.85561	-40.4551	250.643	-16.8757	-56.131	261.522	-22.1888	-75.4536	218.424	18.8598	-9.84294	216.323	22.5692	20.6307	191.436	35.5731	2.02709	
149	1.24167	141.017	13.3951	3.76798	126.724	-3.21116	-13.9086	104.611	-14.8855	-37.3962	97.0397	-27.584	-53.0989	167.73	22.2353	-69.2395	160.005	21.5059	-93.3518	154.963	21.44	-117.191	194.023	21.3297	-67.5761	195.369	23.7658	-96.4515	198.397	23.3258	-129.665	212.07	8.19312	-58.6025	222.114	7.71223	-79.6784	232.81	5.73614	-109.182	228.485	-14.1382	-42.607	240.559	-23.3404	-57.5523	251.617	-32.9312	-75.7441	207.852	17.7597	-11.1819	209.095	21.0012	17.8359	177.041	32.1999	-3.93329	
